# xmcd CD database file
#
# Track frame offsets:
#	150
#	14359
#	28786
#	47741
#	64738
#	80497
#	105095
#	122354
#	133817
#	146639
#	156768
#	172589
#	183863
#	197662
#	217230
#	237996
#	253198
#	259981
#	277597
#	294592
#	325326
#
# Disc length: 4692 seconds
#
# Revision: 1
# Processed by: cddbd v1.5.2PL0 Copyright (c) Steve Scherf et al.
# Submitted via: CDex 1.70beta2
#
DISCID=2a125215
DTITLE=Fuego - De Crăciun... Nicăieri Nu-i ca Acasă
DYEAR=2005
DGENRE=
TTITLE0=La Mulţi Ani
TTITLE1=Bună Sara, Gazdă Mare
TTITLE2=Deshide Uşa, Mamă
TTITLE3=E Vremea Colindelor
TTITLE4=Noapte de Vis
TTITLE5=Nicăieri Nu-i ca Acasă
TTITLE6=Moş Ajunul
TTITLE7=Floricica
TTITLE8=Pluguşor
TTITLE9=Sus, Boieri, Nu mai Dormiţi
TTITLE10=O, Ce Veste Minunată
TTITLE11=Moş Crăciun cu Plete Dalbe
TTITLE12=Colindăm, Doamne, Colind
TTITLE13=Sus la Poarta Raiului
TTITLE14=Deschide Uşa, Creştine
TTITLE15=Flori de Măr Cad la Fereastră
TTITLE16=Urare
TTITLE17=Sfinte Sărbători
TTITLE18=19
TTITLE19=20
TTITLE20=21
EXTD=YEAR: 2005
EXTT0=
EXTT1=
EXTT2=
EXTT3=
EXTT4=
EXTT5=
EXTT6=
EXTT7=
EXTT8=
EXTT9=
EXTT10=
EXTT11=
EXTT12=
EXTT13=
EXTT14=
EXTT15=
EXTT16=
EXTT17=
EXTT18=
EXTT19=
EXTT20=
PLAYORDER=
